<svg xmlns="http://www.w3.org/2000/svg" width="1600" height="700" viewBox="0 0 1600 700"><defs><linearGradient id="bg"><stop stop-color="#071525"/><stop offset="1" stop-color="#234761"/></linearGradient></defs><path fill="url(#bg)" d="M0 0h1600v700H0z"/><g fill="none" stroke="#99c5d9" stroke-width="2" opacity=".5"><path d="M820 620V140h180v480M1050 620V200h180v420M1280 620V95h180v525M745 620h790M800 115h220M1030 175h220M1260 70h220"/><path d="M820 240h180M1050 240h180M1280 240h180"/><path d="M820 305h180M1050 305h180M1280 305h180"/><path d="M820 370h180M1050 370h180M1280 370h180"/><path d="M820 435h180M1050 435h180M1280 435h180"/><path d="M820 500h180M1050 500h180M1280 500h180"/><path d="M820 565h180M1050 565h180M1280 565h180"/></g></svg>